# xmcd
# 
# Track frame offsets:
#     150
#     15189
#     37542
#     52932
#     66177
#     86522
#     98195
#     109453
#     124355
#     142881
#     159033
#     174623
#     192840
#     206267
# 
# Disc length: 2982
# 
# Revision: 0
# Processed by: cddbd v1.5.2PL0 Copyright (c) Steve Scherf et al.
# Submitted via: fre:ac v1.0.17
# 
DISCID=a70ba40e
DTITLE=Various Artist - Me and Mr. Johnson
DYEAR=2004
DGENRE=Blues
TTITLE0=Eric Clapton - Wen you got a good friend
TTITLE1=Eric Clapton - Little queen of spades
TTITLE2=Eric Clapton - They're red hot
TTITLE3=Eric Clapton - Me and the devil blues
TTITLE4=Eric Clapton - Traveling riverside blues
TTITLE5=Eric Clapton - Last fair deal gone down
TTITLE6=Eric Clapton - Stop breakin' down blues
TTITLE7=Eric Clapton - Milkcow's calf blues
TTITLE8=Eric Clapton - Kind hearted woman blues
TTITLE9=Eric Clapton - Come on in my kitchen
TTITLE10=Eric Clapton - If I had possession over judgement day
TTITLE11=Eric Clapton - Love in vain
TTITLE12=Eric Clapton - 32-20 blues
TTITLE13=Eric Clapton - Hell hound on my trail
EXTD=
EXTT0=
EXTT1=
EXTT2=
EXTT3=
EXTT4=
EXTT5=
EXTT6=
EXTT7=
EXTT8=
EXTT9=
EXTT10=
EXTT11=
EXTT12=
EXTT13=
PLAYORDER=
